<svg width="15" height="8" viewBox="0 0 15 8" fill="none" xmlns="http://www.w3.org/2000/svg">
<path d="M4.125 3.83998C5.15883 3.83998 6 3.16143 6 2.32748C6 1.49353 5.15883 0.814989 4.125 0.814989C3.09117 0.814989 2.25 1.49353 2.25 2.32748C2.25 3.16143 3.09117 3.83998 4.125 3.83998ZM12.375 1.41999H7.125C6.91781 1.41999 6.75 1.55535 6.75 1.72249V4.44497H1.5V0.51249C1.5 0.34536 1.33219 0.209991 1.125 0.209991H0.375C0.167812 0.209991 0 0.34536 0 0.51249V7.16746C0 7.33459 0.167812 7.46996 0.375 7.46996H1.125C1.33219 7.46996 1.5 7.33459 1.5 7.16746V6.25997H13.5V7.16746C13.5 7.33459 13.6678 7.46996 13.875 7.46996H14.625C14.8322 7.46996 15 7.33459 15 7.16746V3.53748C15 2.36794 13.8248 1.41999 12.375 1.41999Z" fill="#888888"/>
</svg>
