<svg width="15" height="14" viewBox="0 0 15 14" fill="none" xmlns="http://www.w3.org/2000/svg">
<g clip-path="url(#clip0_1_227)">
<path d="M13.6439 6.33117V7.31432H1.17537V3.7895H0V10.8403H1.17537V9.22895H13.6439V10.9749H14.8156V6.33003L13.6439 6.33117Z" fill="#888888"/>
<path d="M5.37619 6.34139V6.34196C5.37619 6.66229 5.09407 6.92242 4.74529 6.92242H2.34147C2.17414 6.92242 2.01367 6.86126 1.89536 6.75241C1.77704 6.64355 1.71057 6.4959 1.71057 6.34196V6.34082C1.71057 6.02048 1.99268 5.76035 2.34147 5.76035H4.74529C5.09346 5.76035 5.37619 6.01992 5.37619 6.34082V6.34139Z" fill="#888888"/>
<path d="M12.1877 4.06894H10.7246V2.72626H9.68755V4.06951H8.2276V5.0237H9.68693V6.36695H10.724V5.0237H12.1871L12.1877 4.06894Z" fill="#888888"/>
</g>
<defs>
<clipPath id="clip0_1_227">
<rect width="14.8156" height="13.6313" fill="white"/>
</clipPath>
</defs>
</svg>
