<svg width="9" height="9" viewBox="0 0 9 9" fill="none" xmlns="http://www.w3.org/2000/svg">
<path fill-rule="evenodd" clip-rule="evenodd" d="M2.30756 6.66379C2.1693 6.74849 2.06543 6.87932 2.01428 7.03319C1.96314 7.18705 1.96803 7.35404 2.02808 7.50465C2.08812 7.65526 2.19947 7.7798 2.34245 7.85627C2.48542 7.93274 2.65082 7.95622 2.80943 7.92255C2.96804 7.88889 3.10964 7.80025 3.20923 7.6723C3.30882 7.54435 3.35998 7.38532 3.35367 7.2233C3.34736 7.06128 3.284 6.90671 3.17477 6.78688C3.06554 6.66706 2.91747 6.58969 2.75673 6.56846C2.74814 6.53771 2.74027 6.50676 2.73313 6.47564C2.70179 6.33406 2.67731 6.19105 2.65979 6.0471C2.64086 5.90161 2.63015 5.75517 2.62771 5.60848C2.62723 5.56819 2.62838 5.5279 2.63115 5.48771C2.71915 5.4625 2.8076 5.43958 2.89583 5.41964C2.9969 5.39673 3.05694 5.51589 3.10529 5.6126L3.125 5.65133H5.81748C5.86996 5.55187 5.9889 5.39329 6.10417 5.41964C6.227 5.4476 6.35052 5.48083 6.4729 5.51887L6.47221 5.5191C6.47175 5.51864 6.47175 5.51864 6.47221 5.51956C6.47312 5.52277 6.47817 5.53789 6.48321 5.56998C6.48894 5.6071 6.49283 5.65523 6.49467 5.71321C6.49787 5.82871 6.49123 5.96919 6.47771 6.11081C6.46396 6.25221 6.44356 6.38902 6.42065 6.49696C6.4156 6.52102 6.41056 6.54279 6.40552 6.5625H6.10417C6.06162 6.56252 6.01992 6.57439 5.98373 6.59677C5.94755 6.61915 5.91831 6.65117 5.89929 6.68923L5.67013 7.14756C5.65418 7.17936 5.64586 7.21443 5.64583 7.25V7.70833C5.64583 7.76911 5.66998 7.8274 5.71295 7.87038C5.75593 7.91335 5.81422 7.9375 5.875 7.9375H6.33333V7.47916H6.10417V7.30408L6.24579 7.02083H6.87921L7.02083 7.30408V7.47916H6.79167V7.9375H7.25C7.31078 7.9375 7.36907 7.91335 7.41205 7.87038C7.45502 7.8274 7.47917 7.76911 7.47917 7.70833V7.25C7.47914 7.21443 7.47082 7.17936 7.45488 7.14756L7.22571 6.68923C7.20669 6.65117 7.17745 6.61915 7.14127 6.59677C7.10508 6.57439 7.06338 6.56252 7.02083 6.5625H6.87508C6.8996 6.44035 6.92 6.29781 6.93375 6.15481C6.94887 6.00035 6.95667 5.84017 6.95277 5.70037L6.95254 5.69396C7.86646 6.0801 8.625 6.71512 8.625 7.38062V8.625H0.375V7.38062C0.375 6.68579 1.20229 6.02396 2.1696 5.64423C2.17213 5.78677 2.18565 5.94787 2.20513 6.10394C2.22621 6.27237 2.25485 6.43989 2.28648 6.57785C2.29335 6.60742 2.30023 6.63606 2.30756 6.66379ZM2.66667 7.4826C2.78996 7.4826 2.89583 7.38177 2.89583 7.25C2.89583 7.11846 2.78996 7.01739 2.66667 7.01739C2.54338 7.01739 2.4375 7.11823 2.4375 7.25C2.4375 7.38154 2.54338 7.4826 2.66667 7.4826Z" fill="#3762A4"/>
<path fill-rule="evenodd" clip-rule="evenodd" d="M4.49998 4.5C4.98621 4.5 5.45253 4.30685 5.79634 3.96303C6.14016 3.61921 6.33331 3.1529 6.33331 2.66667C6.33331 2.18044 6.14016 1.71412 5.79634 1.3703C5.45253 1.02649 4.98621 0.833333 4.49998 0.833333C4.01375 0.833333 3.54743 1.02649 3.20362 1.3703C2.8598 1.71412 2.66665 2.18044 2.66665 2.66667C2.66665 3.1529 2.8598 3.61921 3.20362 3.96303C3.54743 4.30685 4.01375 4.5 4.49998 4.5ZM4.49998 4.95833C5.76567 4.95833 6.79165 3.93235 6.79165 2.66667C6.79165 1.40098 5.76567 0.375 4.49998 0.375C3.23429 0.375 2.20831 1.40098 2.20831 2.66667C2.20831 3.93235 3.23429 4.95833 4.49998 4.95833Z" fill="#3762A4"/>
</svg>
